# xmcd CD database file
#
# Track frame offsets:
#	150
#	19954
#	35523
#	62311
#	82920
#	109272
#	129851
#	150420
#	171746
#	200154
#	221892
#
# Disc length: 3538 seconds
#
# Revision: 0
# Processed by: cddbd v1.5.1PL2 Copyright (c) Steve Scherf et al.
# Submitted via: CDex 1.51
#
DISCID=960dd00b
DTITLE=Sarah Scharbrough - So Many Reasons
DYEAR=2001
DGENRE=Jazz
TTITLE0=The Only One 
TTITLE1=Everytime
TTITLE2=So Many Reasons
TTITLE3=Your Love
TTITLE4=Spoonful of Love
TTITLE5=What You've Made Me
TTITLE6=Satisfied
TTITLE7=Made for You
TTITLE8=Let It Fall
TTITLE9=Lead Me Through
TTITLE10=Count Your Blessings
EXTD=YEAR: 2001
EXTT0=
EXTT1=
EXTT2=
EXTT3=
EXTT4=
EXTT5=
EXTT6=
EXTT7=
EXTT8=
EXTT9=
EXTT10=
PLAYORDER=
